# xmcd CD database file
#
# Track frame offsets:
#	182
#	117302
#	184407
#	266495
#
# Disc length: 3970 seconds
#
# Revision: 50
# Processed by: cddbd v1.5.2PL0 Copyright (c) Steve Scherf et al.
# Submitted via: CDex 1.51
#
DISCID=350f8004
DTITLE=Keith Jarrett - The Köln Concert [Reissued 1999]
DYEAR=1975
DGENRE=Jazz
TTITLE0=Part I
TTITLE1=Part II a
TTITLE2=Part II b
TTITLE3=Part II c
EXTD=Keith Jarrett, Piano\nAll composed by Keith Jarrett\nProduced by Manfred Eichner\n\nRecorded January 24, 1975 YEAR: 1975
EXTT0=
EXTT1=
EXTT2=
EXTT3=
PLAYORDER=
